name analog
datacolumns 19
datarows 23
range 0.391 0.402
endheader
time	ground_force_vx	ground_force_vy	ground_force_vz	ground_force_px	ground_force_py	ground_force_pz	l_ground_force_vx	l_ground_force_vy	l_ground_force_vz	l_ground_force_px	l_ground_force_py	l_ground_force_pz	ground_torque_x	ground_torque_y	ground_torque_z	l_ground_torque_x	l_ground_torque_y	l_ground_torque_z
0.391	-0.0	-0.0	-0.0	1.4924437999725342	10.10058307647705	-404.74420166015625	-1.41937255859375	-12.983287811279297	-395.8489074707031	-0.0	-0.0	-0.0	-0.0	-0.0	-0.0	84436.7109375	-33441.80078125	-3849.288818359375
0.3915	-0.0	-0.0	-0.0	1.7356935739517212	10.095972061157228	-404.8402404785156	-1.130501627922058	-13.005927085876465	-395.633544921875	-0.0	-0.0	-0.0	-0.0	-0.0	-0.0	84273.5703125	-33221.625	-3770.6904296875
0.392	-0.0	-0.0	-0.0	1.6219725608825684	9.852985382080078	-406.8150939941406	-1.0417072772979736	-13.125847816467283	-393.1447143554688	-0.0	-0.0	-0.0	-0.0	-0.0	-0.0	83816.390625	-33159.11328125	-3771.407958984375
0.3925	-0.0	-0.0	-0.0	1.950379490852356	9.856752395629885	-405.2565307617188	-0.7869058847427368	-12.752645492553713	-392.2655029296875	-0.0	-0.0	-0.0	-0.0	-0.0	-0.0	83712.1953125	-33058.9453125	-3759.604248046875
0.393	-0.0	-0.0	-0.0	1.5288918018341064	9.727516174316406	-405.9987487792969	-0.3894999027252197	-13.0141019821167	-390.44244384765625	-0.0	-0.0	-0.0	-0.0	-0.0	-0.0	83403.8984375	-33022.36328125	-3715.450439453125
0.3935	-0.0	-0.0	-0.0	1.9626312255859373	9.472511291503906	-403.33148193359375	-0.5015255808830261	-12.54167938232422	-390.70068359375	-0.0	-0.0	-0.0	-0.0	-0.0	-0.0	83705.1015625	-33276.38671875	-3836.60498046875
0.394	-0.0	-0.0	-0.0	1.6452556848526	9.611501693725586	-403.2330017089844	-0.1120596081018447	-12.441734313964844	-391.09576416015625	-0.0	-0.0	-0.0	-0.0	-0.0	-0.0	83808.96875	-33231.890625	-3867.372802734375
0.3945	-0.0	-0.0	-0.0	1.8217034339904783	9.474520683288574	-400.3013305664063	-0.1004465892910957	-12.49494171142578	-394.0074462890625	-0.0	-0.0	-0.0	-0.0	-0.0	-0.0	84015.8359375	-33447.765625	-3812.015380859375
0.395	-0.0	-0.0	-0.0	1.5040004253387451	9.69007968902588	-399.2427062988281	-0.2010533362627029	-12.441593170166016	-395.7054138183594	-0.0	-0.0	-0.0	-0.0	-0.0	-0.0	84538.3125	-33805.5859375	-3808.2021484375
0.3955	-0.0	-0.0	-0.0	1.274187088012695	9.75390911102295	-397.780517578125	-0.5441220998764038	-12.453357696533203	-398.70697021484375	-0.0	-0.0	-0.0	-0.0	-0.0	-0.0	85210.0625	-34285.2734375	-3964.727294921875
0.396	-0.0	-0.0	-0.0	1.7082380056381226	9.689336776733398	-397.7808532714844	-0.3959572613239288	-12.735562324523926	-400.2427673339844	-0.0	-0.0	-0.0	-0.0	-0.0	-0.0	85794.359375	-34346.8359375	-3915.190673828125
0.3965	-0.0	-0.0	-0.0	1.8606781959533687	9.753419876098633	-397.9833679199219	-0.0359377264976501	-12.400815963745115	-400.892333984375	-0.0	-0.0	-0.0	-0.0	-0.0	-0.0	85868.8828125	-34706.046875	-3909.193359375
0.397	-0.0	-0.0	-0.0	2.408264398574829	9.218810081481934	-400.75787353515625	-0.0646295398473739	-12.646395683288574	-400.57171630859375	-0.0	-0.0	-0.0	-0.0	-0.0	-0.0	86110.46875	-34839.6484375	-3974.213134765625
0.3975	-0.0	-0.0	-0.0	2.2045698165893555	9.612534523010254	-401.3141174316406	0.1007933616638183	-12.605941772460938	-399.9688415527344	-0.0	-0.0	-0.0	-0.0	-0.0	-0.0	85747.5390625	-34761.765625	-3944.4072265625
0.398	-0.0	-0.0	-0.0	2.4086837768554688	9.230815887451172	-401.7140502929688	0.0887107849121093	-11.92342758178711	-398.1764526367188	-0.0	-0.0	-0.0	-0.0	-0.0	-0.0	86011.4609375	-35048.27734375	-3930.820068359375
0.3985	-0.0	-0.0	-0.0	3.057424783706665	8.87581729888916	-402.1177062988281	-0.0	-11.609781265258787	-398.62255859375	-0.0	-0.0	-0.0	-0.0	-0.0	-0.0	85682.3984375	-34794.0703125	-3922.689697265625
0.399	-0.0	-0.0	-0.0	3.2746505737304688	9.267290115356444	-404.0288696289063	0.2661323547363281	-11.631391525268556	-397.8391418457031	-0.0	-0.0	-0.0	-0.0	-0.0	-0.0	85455.5390625	-34819.83984375	-3812.105224609375
0.3995	-0.0	-0.0	-0.0	3.8098297119140634	8.886841773986816	-405.34674072265625	0.4188623428344726	-11.670754432678224	-395.8893432617188	-0.0	-0.0	-0.0	-0.0	-0.0	-0.0	85240.0	-34763.4296875	-3714.799560546875
0.4	-0.0	-0.0	-0.0	3.757133722305298	9.04159450531006	-405.6361999511719	0.9262689352035522	-11.55581760406494	-393.843017578125	-0.0	-0.0	-0.0	-0.0	-0.0	-0.0	84929.78125	-34651.984375	-3570.24560546875
0.4005	-0.0	-0.0	-0.0	4.318380832672119	9.144187927246094	-404.3386535644531	1.2294834852218628	-11.317588806152344	-392.99749755859375	-0.0	-0.0	-0.0	-0.0	-0.0	-0.0	84501.5859375	-34561.015625	-3676.172119140625
0.401	-0.0	-0.0	-0.0	4.001177787780762	9.37197494506836	-405.6985168457031	1.153240203857422	-10.800192832946776	-390.3968505859375	-0.0	-0.0	-0.0	-0.0	-0.0	-0.0	84207.1484375	-34241.5	-3412.94970703125
0.4015	-0.0	-0.0	-0.0	4.206231117248535	9.52362823486328	-402.7835388183594	1.2293806076049805	-10.371183395385742	-391.1021423339844	-0.0	-0.0	-0.0	-0.0	-0.0	-0.0	83967.234375	-34345.7734375	-3510.5234375
0.402	-0.0	-0.0	-0.0	4.1660590171813965	9.786230087280272	-404.9380493164063	1.267251968383789	-10.472496032714844	-387.6080932617188	-0.0	-0.0	-0.0	-0.0	-0.0	-0.0	83536.46875	-33978.5703125	-3612.31103515625
